<svg width="200" height="200" viewBox="0 0 200 200" fill="none" xmlns="http://www.w3.org/2000/svg">
<path d="M200 0H0V200H200V0Z" fill="#FFD2B0"/>
<path d="M200 0H0V15.2238H200V0Z" fill="#FFB783"/>
<path d="M10.5539 10.2049C11.8593 10.2049 12.9175 9.13137 12.9175 7.80706C12.9175 6.48275 11.8593 5.40918 10.5539 5.40918C9.24853 5.40918 8.19031 6.48275 8.19031 7.80706C8.19031 9.13137 9.24853 10.2049 10.5539 10.2049Z" fill="#FFD2B0"/>
<path d="M18.1668 10.2049C19.4722 10.2049 20.5304 9.13137 20.5304 7.80706C20.5304 6.48275 19.4722 5.40918 18.1668 5.40918C16.8614 5.40918 15.8032 6.48275 15.8032 7.80706C15.8032 9.13137 16.8614 10.2049 18.1668 10.2049Z" fill="#FFD2B0"/>
<path d="M25.7797 10.2049C27.0851 10.2049 28.1434 9.13137 28.1434 7.80706C28.1434 6.48275 27.0851 5.40918 25.7797 5.40918C24.4744 5.40918 23.4161 6.48275 23.4161 7.80706C23.4161 9.13137 24.4744 10.2049 25.7797 10.2049Z" fill="#FFD2B0"/>
<path d="M89.735 26.3209H9.78455V70.2635H89.735V26.3209Z" fill="#FFB783"/>
<path d="M89.735 80.6915H9.78455V124.634H89.735V80.6915Z" fill="#FFB783"/>
<path d="M189.144 80.6915H109.194V175.464H189.144V80.6915Z" fill="#FFB783"/>
<path d="M174.19 23.2982H45.3851V140.802H174.19V23.2982Z" fill="#FFB783"/>
<path d="M91.037 86.1019C94.6923 91.7899 89.4827 104.382 89.4827 106.361C89.4827 108.341 86.0309 125.608 84.8491 125.608C84.1345 124.883 81.3543 128.303 81.3543 127.634C81.9864 126.462 78.4993 107.374 80.4557 103.322C79.997 99.777 80.703 92.5706 80.4557 91.0371C85.5402 90.1728 90.4598 87.9979 91.037 86.1019Z" fill="#DE8E68"/>
<path d="M79.8631 90.2969C80.4128 85.78 90.6643 75.5193 95.364 80.092C99.4591 84.0792 92.0385 98.327 90.1421 98.8847C87.9984 99.1077 79.7257 93.364 79.8631 90.2969Z" fill="#FF6900"/>
<path d="M79.8631 90.2968C80.4128 85.7799 90.6643 75.5192 95.364 80.0919C99.4591 84.079 92.0385 98.3269 90.1421 98.8846C87.9984 99.1076 79.7257 93.3639 79.8631 90.2968Z" fill="black" fill-opacity="0.15"/>
<path d="M111.14 80.9005C116.362 78.6699 123.673 90.9382 122.848 95.3993C122.848 97.3511 112.13 101.533 110.481 100.418C108.832 99.3029 105.918 83.1311 111.14 80.9005Z" fill="#FED892"/>
<path d="M99.707 74.3483C112.624 74.3483 117.132 85.2503 117.132 88.7913C117.132 92.3324 113.092 113.941 113.257 123.561C113.284 125.15 90.0877 126.572 86.9271 124.258C85.4429 123.17 82.2548 74.3483 99.707 74.3483Z" fill="#FF7A1A"/>
<path d="M122.849 95.3993C126.504 101.087 126.284 114.192 126.284 116.172C126.284 118.151 112.652 135.94 111.47 135.94C110.756 135.215 108.777 133.013 108.777 132.343C109.409 131.172 117.517 113.188 118.973 111.906C118.314 111.097 112.515 101.868 112.267 100.334C117.352 99.4701 122.271 97.2953 122.849 95.3993Z" fill="#DE8E68"/>
<path d="M122.848 95.3994C123.673 90.9382 116.994 78.0008 111.14 80.9006C106.056 83.4379 108.832 99.3029 110.481 100.418C112.46 101.283 122.079 98.3549 122.848 95.3994Z" fill="#FF7A1A"/>
<path d="M122.848 95.3994C123.673 90.9382 116.994 78.0008 111.14 80.9006C106.056 83.4379 108.832 99.3029 110.481 100.418C112.46 101.283 122.079 98.3549 122.848 95.3994Z" fill="white" fill-opacity="0.2"/>
<path d="M96.4089 71.6715C96.1341 72.5358 95.9967 75.2125 96.299 76.4115C96.3265 76.4672 101.796 76.8855 102.4 75.9096C102.428 75.101 103.747 67.9073 105.534 65.6768C105.698 65.4258 105.341 64.7288 105.341 64.7288L98.9924 67.4055L96.4089 71.6715Z" fill="#D38466"/>
<path d="M104.626 65.3422C105.038 65.8998 105.561 66.1508 106.028 66.1508C107.072 66.1508 109.491 65.1749 109.491 61.6896C109.491 59.1802 107.072 57.8976 107.072 56.6987C107.072 55.5555 107.374 55.5276 107.374 54.5796C107.374 54.1056 106.907 52.5442 105.451 52.5442C104.626 52.5442 104.324 53.2412 103.499 53.2412C102.592 53.2412 101.768 51.4568 100.394 51.4568C99.4591 51.4568 98.5796 52.349 97.5902 52.349C96.4634 52.349 95.6938 50.6482 94.1272 50.6482C92.5057 50.6482 91.9285 52.126 91.2964 52.126C90.4994 52.126 90.362 51.9029 89.5649 51.9029C89.0702 51.9029 87.5586 52.7951 87.5586 54.4123C87.5586 55.5555 88.0258 57.4236 90.3619 57.4236C91.7361 57.4236 92.5057 59.6263 93.715 59.6263C94.1822 59.6263 94.5945 59.236 94.7044 59.4311C95.1716 60.2676 96.1336 62.554 96.1336 62.554L100.503 65.0355L104.626 65.3422Z" fill="black"/>
<path d="M103.665 64.1989C103.665 64.5893 103.527 64.6729 102.95 64.6729C102.675 64.6729 102.291 64.3105 102.291 63.9201C102.291 63 102.95 62.8048 102.95 61.6059C102.95 59.5705 97.7008 58.5109 95.8594 57.4514C95.1998 58.1206 94.7326 58.9849 94.5402 59.9608L93.3584 66.1228C92.8362 68.7995 94.5677 71.3926 97.1786 71.9223C99.7896 72.4521 102.373 70.6955 102.895 68.0467L103.088 66.9872C103.198 67.0151 103.308 67.0429 103.39 67.0429C104.077 67.0429 104.599 66.4017 104.599 65.6209C104.654 64.896 103.665 63.6134 103.665 64.1989Z" fill="#DE8E68"/>
<path fill-rule="evenodd" clip-rule="evenodd" d="M0 15.1945H200V199.871H0V15.1945ZM146.278 28.8695H56.4143V120.036H146.278V28.8695Z" fill="#FFD2B0"/>
<path d="M154.702 128.647H44.931V132.885H154.702V128.647Z" fill="#FFB783"/>
<path d="M154.702 140.608H44.931V144.846H154.702V140.608Z" fill="#FFB783"/>
<path d="M154.702 152.57H44.931V156.808H154.702V152.57Z" fill="#FFB783"/>
<path d="M154.702 164.531H44.931V168.769H154.702V164.531Z" fill="#FFB783"/>
</svg>
